<svg xmlns="http://www.w3.org/2000/svg" width="1024" height="1024" viewBox="0 0 1024 1024">
  <metadata><?xpacket begin="﻿" id="W5M0MpCehiHzreSzNTczkc9d"?>
<x:xmpmeta xmlns:x="adobe:ns:meta/" x:xmptk="Adobe XMP Core 5.6-c138 79.159824, 2016/09/14-01:09:01        ">
   <rdf:RDF xmlns:rdf="http://www.w3.org/1999/02/22-rdf-syntax-ns#">
      <rdf:Description rdf:about=""/>
   </rdf:RDF>
</x:xmpmeta>
                                                                                                    
                                                                                                    
                                                                                                    
                                                                                                    
                                                                                                    
                                                                                                    
                                                                                                    
                                                                                                    
                                                                                                    
                                                                                                    
                                                                                                    
                                                                                                    
                                                                                                    
                                                                                                    
                                                                                                    
                                                                                                    
                                                                                                    
                                                                                                    
                                                                                                    
                                                                                                    
                           
<?xpacket end="w"?></metadata>
<defs>
    <style>
      .cls-1 {
        fill-rule: evenodd;
      }
    </style>
  </defs>
  <path id="Check" class="cls-1" d="M176.307,391.353l332.34,332.34a10,10,0,0,1,0,14.143l-60.811,60.811a10,10,0,0,1-14.143,0l-332.34-332.34a10,10,0,0,1,0-14.143l60.811-60.811A10,10,0,0,1,176.307,391.353Z"/>
  <path id="Check-2" data-name="Check" class="cls-1" d="M389.107,706.94L869.94,226.107a10,10,0,0,1,14.142,0l60.811,60.811a10,10,0,0,1,0,14.142L464.06,781.893a10,10,0,0,1-14.142,0l-60.811-60.811A10,10,0,0,1,389.107,706.94Z"/>
</svg>
