<svg xmlns="http://www.w3.org/2000/svg" width="1024" height="1024" viewBox="0 0 1024 1024">
  <metadata><?xpacket begin="﻿" id="W5M0MpCehiHzreSzNTczkc9d"?>
<x:xmpmeta xmlns:x="adobe:ns:meta/" x:xmptk="Adobe XMP Core 5.6-c138 79.159824, 2016/09/14-01:09:01        ">
   <rdf:RDF xmlns:rdf="http://www.w3.org/1999/02/22-rdf-syntax-ns#">
      <rdf:Description rdf:about=""/>
   </rdf:RDF>
</x:xmpmeta>
                                                                                                    
                                                                                                    
                                                                                                    
                                                                                                    
                                                                                                    
                                                                                                    
                                                                                                    
                                                                                                    
                                                                                                    
                                                                                                    
                                                                                                    
                                                                                                    
                                                                                                    
                                                                                                    
                                                                                                    
                                                                                                    
                                                                                                    
                                                                                                    
                                                                                                    
                                                                                                    
                           
<?xpacket end="w"?></metadata>
<defs>
    <style>
      .cls-1 {
        fill-rule: evenodd;
      }
    </style>
  </defs>
  <rect id="Border" x="112" y="251" width="31" height="595" rx="10" ry="10"/>
  <rect id="Border-2" data-name="Border" x="112" y="815" width="800" height="31" rx="10" ry="10"/>
  <path id="Line" class="cls-1" d="M188.314,765.388l189.9-301.874c1.906-3.031,7.242-3.1,11.917-.164l8.464,5.325c4.675,2.941,6.919,7.782,5.012,10.814l-189.9,301.873c-1.907,3.032-7.242,3.105-11.917.164l-8.465-5.325C188.651,773.261,186.407,768.419,188.314,765.388Z"/>
  <path id="Abgerundetes_Rechteck_1" data-name="Abgerundetes Rechteck 1" class="cls-1" d="M695.16,464.028L886.064,321.9a10,10,0,0,1,13.993,2.05l5.971,8.021a10,10,0,0,1-2.049,13.993l-190.9,142.125a10,10,0,0,1-13.993-2.05l-5.972-8.021A10,10,0,0,1,695.16,464.028Z"/>
  <path id="Line-2" data-name="Line" class="cls-1" d="M402.863,471.3l31.994,147.087c0.321,1.477-3.793,3.626-9.19,4.8l-9.772,2.125c-5.4,1.174-10.032.928-10.353-.549L373.548,477.676c-0.321-1.477,3.794-3.626,9.19-4.8l9.772-2.125C397.906,469.577,402.542,469.823,402.863,471.3Z"/>
  <path id="Line-3" data-name="Line" class="cls-1" d="M406.514,607.161L698.586,462.035c2.932-1.457,7.3,1.371,9.76,6.317l4.45,8.956c2.457,4.945,2.072,10.136-.861,11.594L419.863,634.027c-2.933,1.457-7.3-1.371-9.76-6.317l-4.45-8.955C403.2,613.809,403.581,608.618,406.514,607.161Z"/>
</svg>
