<svg xmlns="http://www.w3.org/2000/svg" width="1024" height="1024" viewBox="0 0 1024 1024">
  <metadata><?xpacket begin="﻿" id="W5M0MpCehiHzreSzNTczkc9d"?>
<x:xmpmeta xmlns:x="adobe:ns:meta/" x:xmptk="Adobe XMP Core 5.6-c138 79.159824, 2016/09/14-01:09:01        ">
   <rdf:RDF xmlns:rdf="http://www.w3.org/1999/02/22-rdf-syntax-ns#">
      <rdf:Description rdf:about=""/>
   </rdf:RDF>
</x:xmpmeta>
                                                                                                    
                                                                                                    
                                                                                                    
                                                                                                    
                                                                                                    
                                                                                                    
                                                                                                    
                                                                                                    
                                                                                                    
                                                                                                    
                                                                                                    
                                                                                                    
                                                                                                    
                                                                                                    
                                                                                                    
                                                                                                    
                                                                                                    
                                                                                                    
                                                                                                    
                                                                                                    
                           
<?xpacket end="w"?></metadata>
<defs>
    <style>
      .cls-1 {
        fill-rule: evenodd;
      }
    </style>
  </defs>
  <path id="Times" class="cls-1" d="M827.275,134.646l63.079,63.075a15.38,15.38,0,0,1,0,21.75L219.323,890.459a15.381,15.381,0,0,1-21.751,0l-63.079-63.075a15.38,15.38,0,0,1,0-21.75l671.03-670.988A15.382,15.382,0,0,1,827.275,134.646Z"/>
  <path id="Times-2" data-name="Times" class="cls-1" d="M134.623,197.543L197.7,134.468a15.381,15.381,0,0,1,21.751,0l671.03,670.989a15.378,15.378,0,0,1,0,21.75L827.4,890.282a15.381,15.381,0,0,1-21.751,0L134.623,219.293A15.378,15.378,0,0,1,134.623,197.543Z"/>
</svg>
