<?xml version="1.0" standalone="no"?>
<!DOCTYPE svg PUBLIC "-//W3C//DTD SVG 20010904//EN"
 "http://www.w3.org/TR/2001/REC-SVG-20010904/DTD/svg10.dtd">
<svg version="1.0" xmlns="http://www.w3.org/2000/svg"
 width="1024.000000pt" height="1024.000000pt" viewBox="0 0 1024.000000 1024.000000"
 preserveAspectRatio="xMidYMid meet">
<metadata>
Created by potrace 1.15, written by Peter Selinger 2001-2017
</metadata>
<g transform="translate(0.000000,1024.000000) scale(0.100000,-0.100000)"
fill="#000000" stroke="none">
<path d="M4955 9159 c-26 -9 -129 -59 -200 -97 -40 -21 -218 -204 -260 -267
-22 -33 -43 -62 -48 -63 -6 -3 -131 -220 -133 -232 0 -3 -20 -45 -44 -95 -24
-49 -45 -92 -45 -95 -1 -3 -6 -16 -12 -30 -6 -14 -14 -40 -18 -57 -3 -18 -10
-33 -15 -33 -4 0 -10 -12 -13 -27 -3 -16 -11 -41 -18 -58 -7 -16 -13 -32 -13
-35 -1 -3 -4 -9 -7 -15 -4 -5 -12 -35 -20 -65 -7 -30 -16 -57 -19 -60 -4 -3
-12 -32 -20 -65 -7 -33 -18 -66 -23 -72 -5 -7 -7 -20 -3 -28 3 -8 2 -15 -3
-15 -4 0 -13 -31 -20 -70 -7 -38 -17 -72 -21 -75 -5 -3 -14 -46 -21 -95 -7
-50 -17 -90 -22 -90 -5 0 -7 -14 -5 -30 3 -17 1 -33 -3 -35 -4 -3 -13 -52 -20
-110 -7 -58 -16 -105 -19 -105 -4 0 -12 -62 -19 -137 -7 -76 -17 -146 -22
-156 -6 -11 -9 -38 -8 -60 1 -23 -1 -49 -4 -57 -34 -90 -34 -1490 0 -1580 3
-8 5 -34 4 -58 -2 -24 2 -48 7 -55 5 -7 15 -75 22 -152 7 -77 16 -144 20 -150
4 -5 13 -56 20 -112 7 -57 17 -103 21 -103 4 0 5 -9 2 -21 -3 -11 -1 -30 5
-42 6 -12 16 -56 23 -97 6 -41 15 -80 19 -85 5 -6 14 -41 20 -78 7 -37 16 -70
21 -73 5 -3 7 -10 3 -15 -3 -5 -2 -15 3 -22 6 -7 15 -39 22 -72 7 -33 17 -64
21 -70 4 -5 13 -32 20 -60 7 -27 16 -54 19 -60 3 -5 6 -12 7 -15 0 -3 5 -16
11 -30 6 -14 14 -40 18 -58 3 -17 10 -32 15 -32 4 0 10 -12 13 -27 3 -16 10
-39 15 -53 5 -14 11 -29 12 -35 1 -5 9 -19 16 -30 8 -11 14 -26 14 -35 0 -9
-173 -125 -433 -289 -237 -151 -433 -275 -435 -276 -1 -1 98 -270 220 -598
l222 -597 282 0 c259 0 282 1 289 18 4 9 53 141 110 292 57 151 106 283 110
293 7 16 37 17 489 15 l481 -3 56 -150 c30 -82 81 -221 113 -308 l58 -157 303
0 302 0 222 597 c121 328 220 597 219 598 -2 1 -207 132 -456 290 -440 279
-453 288 -439 308 8 12 22 47 32 77 10 30 21 60 25 65 5 6 13 30 20 55 7 25
15 47 19 50 4 3 16 36 26 74 10 38 24 81 31 95 6 14 15 46 19 71 4 25 11 50
15 55 5 6 16 48 25 95 10 47 21 90 25 95 4 6 14 46 20 90 7 44 16 85 20 90 4
6 16 69 25 140 10 72 21 135 25 140 4 6 14 73 21 150 7 77 16 142 20 145 33
23 48 1257 20 1625 -7 99 -16 185 -20 190 -4 6 -14 73 -21 150 -7 77 -16 142
-19 145 -4 3 -15 66 -25 140 -11 74 -22 137 -26 140 -3 3 -12 43 -19 90 -7 47
-16 90 -21 95 -4 6 -16 48 -25 95 -9 47 -20 90 -24 95 -4 6 -14 37 -21 70 -8
33 -16 62 -20 65 -3 3 -12 30 -19 60 -7 30 -22 74 -32 98 -11 23 -22 56 -26
72 -3 17 -9 30 -13 30 -4 0 -13 21 -20 48 -6 26 -34 93 -61 150 -27 56 -49
104 -49 106 0 11 -126 224 -141 239 -11 10 -19 24 -19 32 0 8 -4 15 -9 15 -4
0 -21 19 -36 43 -33 49 -208 224 -239 238 -12 5 -30 15 -41 21 -112 72 -170
88 -312 87 -59 0 -121 -5 -138 -10z m339 -1557 c85 -40 158 -113 199 -200 30
-62 32 -75 32 -172 0 -97 -2 -110 -32 -172 -41 -88 -113 -160 -201 -201 -62
-30 -75 -32 -172 -32 -97 0 -110 2 -172 32 -88 41 -160 113 -201 201 -30 62
-32 75 -32 172 0 97 2 110 32 172 52 111 158 199 270 228 21 5 77 8 125 6 71
-3 98 -9 152 -34z"/>
</g>
</svg>
