<svg xmlns="http://www.w3.org/2000/svg" width="1024" height="1024" viewBox="0 0 1024 1024">
  <metadata><?xpacket begin="﻿" id="W5M0MpCehiHzreSzNTczkc9d"?>
<x:xmpmeta xmlns:x="adobe:ns:meta/" x:xmptk="Adobe XMP Core 5.6-c138 79.159824, 2016/09/14-01:09:01        ">
   <rdf:RDF xmlns:rdf="http://www.w3.org/1999/02/22-rdf-syntax-ns#">
      <rdf:Description rdf:about=""/>
   </rdf:RDF>
</x:xmpmeta>
                                                                                                    
                                                                                                    
                                                                                                    
                                                                                                    
                                                                                                    
                                                                                                    
                                                                                                    
                                                                                                    
                                                                                                    
                                                                                                    
                                                                                                    
                                                                                                    
                                                                                                    
                                                                                                    
                                                                                                    
                                                                                                    
                                                                                                    
                                                                                                    
                                                                                                    
                                                                                                    
                           
<?xpacket end="w"?></metadata>
<defs>
    <style>
      .cls-1 {
        fill-rule: evenodd;
      }
    </style>
  </defs>
  <path id="Times" class="cls-1" d="M744.892,232.437l46.67,46.668a11.378,11.378,0,0,1,0,16.092L295.088,791.64a11.379,11.379,0,0,1-16.093,0l-46.671-46.667a11.378,11.378,0,0,1,0-16.092L728.8,232.437A11.379,11.379,0,0,1,744.892,232.437Z"/>
  <path id="Times-2" data-name="Times" class="cls-1" d="M232.42,278.973l46.67-46.667a11.381,11.381,0,0,1,16.094,0L791.658,728.75a11.378,11.378,0,0,1,0,16.092l-46.67,46.667a11.379,11.379,0,0,1-16.093,0L232.42,295.066A11.379,11.379,0,0,1,232.42,278.973Z"/>
</svg>
